<?xml version="1.0" encoding="utf-8"?>
<!-- Generator: Adobe Illustrator 23.0.6, SVG Export Plug-In . SVG Version: 6.00 Build 0)  -->
<svg version="1.1" id="Camada_1" xmlns="http://www.w3.org/2000/svg" xmlns:xlink="http://www.w3.org/1999/xlink" x="0px" y="0px"
	 viewBox="0 0 128 128" style="enable-background:new 0 0 128 128;" xml:space="preserve">
<style type="text/css">
	.st0{fill:#003255;}
	.st1{fill:#00AF67;}
</style>
<g>
	<rect x="52.9" y="20.2" class="st0" width="34.5" height="4.1"/>
</g>
<g>
	<rect x="52.9" y="35.2" class="st0" width="69" height="4.1"/>
</g>
<g>
	<rect x="52.9" y="50.2" class="st0" width="69" height="4.1"/>
</g>
<g>
	<g>
		<g>
			<g>
				<path class="st0" d="M11.7,55.2c-1.5,0-2.9-0.6-3.9-1.6c-1-1-1.6-2.4-1.6-3.9V25.8c0-3,2.4-5.5,5.5-5.5h23.9
					c3,0,5.5,2.4,5.5,5.5v23.9c0,1.5-0.6,2.9-1.6,3.9c-1,1-2.4,1.6-3.9,1.6H11.7z M11.7,24.2c-0.5,0-0.8,0.1-1.2,0.5
					c-0.3,0.3-0.5,0.7-0.5,1.2v23.9c0,0.9,0.7,1.6,1.6,1.6h23.9c0.9,0,1.6-0.7,1.6-1.6V25.8c0-0.9-0.7-1.6-1.6-1.6l0,0L11.7,24.2z"
					/>
			</g>
		</g>
	</g>
</g>
<g>
	<rect x="52.9" y="72.8" class="st0" width="34.5" height="4.1"/>
</g>
<g>
	<rect x="52.9" y="87.7" class="st0" width="69" height="4.1"/>
</g>
<g>
	<rect x="52.9" y="102.7" class="st0" width="69" height="4.1"/>
</g>
<g>
	<g>
		<g>
			<path class="st0" d="M11.7,107.8c-1.5,0-2.9-0.6-3.9-1.6s-1.6-2.4-1.6-3.9V78.3c0-3,2.4-5.5,5.5-5.5h23.9c3,0,5.5,2.4,5.5,5.5
				v23.9c0,1.5-0.6,2.9-1.6,3.9c-1,1-2.4,1.6-3.9,1.6H11.7z M11.7,76.7c-0.5,0-0.8,0.1-1.2,0.5s-0.5,0.7-0.5,1.2v23.9
				c0,0.9,0.7,1.6,1.6,1.6h23.9c0.9,0,1.6-0.7,1.6-1.6V78.3c0-0.9-0.7-1.6-1.6-1.6l0,0H11.7z"/>
		</g>
	</g>
</g>
<g>
	<g>
		<path class="st1" d="M21.8,99.3L12,89.9l3.7-3.8l6,5.8l9.8-10.2l3.8,3.7L21.8,99.3z"/>
	</g>
</g>
</svg>
