<?xml version="1.0" encoding="utf-8"?>
<!-- Generator: Adobe Illustrator 24.1.1, SVG Export Plug-In . SVG Version: 6.00 Build 0)  -->
<svg version="1.1" id="Camada_1" xmlns="http://www.w3.org/2000/svg" xmlns:xlink="http://www.w3.org/1999/xlink" x="0px" y="0px"
	 viewBox="0 0 128 128" style="enable-background:new 0 0 128 128;" xml:space="preserve">
<style type="text/css">
	.st0{fill:none;stroke:#2A4661;stroke-width:6;stroke-linecap:round;stroke-linejoin:round;stroke-miterlimit:10;}
	.st1{fill:#FFFFFF;stroke:#16B7BD;stroke-width:6;stroke-linecap:round;stroke-linejoin:round;stroke-miterlimit:10;}
	.st2{fill:#FF253E;}
</style>
<rect x="28.9" y="17.9" class="st0" width="85.3" height="77.3"/>
<rect x="13.8" y="66.4" class="st1" width="48.2" height="43.7"/>
<path class="st2" d="M47.4,78.7C47.4,78.7,47.3,78.7,47.4,78.7c-0.1-0.1-0.1-0.1-0.1-0.1c0,0-0.1-0.1-0.1-0.1c0,0,0,0,0,0
	c0,0-0.1-0.1-0.1-0.1c0,0,0,0-0.1,0c0,0-0.1,0-0.1,0c0,0,0,0-0.1,0c0,0-0.1,0-0.1,0c0,0,0,0-0.1,0c0,0-0.1,0-0.1,0c0,0,0,0-0.1,0
	c0,0-0.1,0-0.1,0c0,0,0,0-0.1,0c-0.1,0-0.1,0-0.2,0l-13.5,0c-1,0-1.9,0.8-1.9,1.9c0,1,0.8,1.9,1.9,1.9l8.9,0L28.4,95
	c-0.7,0.7-0.7,1.9,0,2.7s1.9,0.7,2.7,0l13.1-13.1l0,8.9c0,1,0.8,1.9,1.9,1.9c0.5,0,1-0.2,1.3-0.6c0.3-0.3,0.6-0.8,0.6-1.3l0-13.5
	c0,0,0,0,0,0c0-0.1,0-0.1,0-0.2c0,0,0,0,0,0c0,0,0-0.1,0-0.1c0,0,0,0,0-0.1c0,0,0-0.1,0-0.1c0,0,0,0,0-0.1c0,0,0-0.1-0.1-0.1
	c0,0,0,0,0,0c0,0,0,0,0-0.1c0,0,0-0.1,0-0.1c0,0,0,0,0-0.1c0,0,0-0.1-0.1-0.1c0,0,0,0,0,0c0,0-0.1-0.1-0.1-0.1c0,0,0,0,0,0
	C47.5,78.8,47.5,78.8,47.4,78.7C47.4,78.7,47.4,78.7,47.4,78.7z"/>
</svg>
