<?xml version="1.0" encoding="utf-8"?>
<!-- Generator: Adobe Illustrator 23.0.6, SVG Export Plug-In . SVG Version: 6.00 Build 0)  -->
<svg version="1.1" id="Camada_1" xmlns="http://www.w3.org/2000/svg" xmlns:xlink="http://www.w3.org/1999/xlink" x="0px" y="0px"
	 viewBox="0 0 128 128" style="enable-background:new 0 0 128 128;" xml:space="preserve">
<style type="text/css">
	.st0{fill:none;stroke:#E9103B;stroke-width:4;stroke-linecap:round;stroke-linejoin:round;stroke-miterlimit:10;}
	.st1{fill:none;stroke:#16416E;stroke-width:4;stroke-linecap:round;stroke-linejoin:round;stroke-miterlimit:10;}
	.st2{fill:#16416E;}
</style>
<rect x="46.1" y="17.6" class="st0" width="35.8" height="32.4"/>
<line class="st1" x1="9.9" y1="110.4" x2="118.1" y2="110.4"/>
<g>
	<path class="st2" d="M35.9,93.4H22.2l-2.1,5.3c-0.1,0.2-0.2,0.4-0.4,0.7c-0.2,0.2-0.6,0.3-1.1,0.3h-1.5c-0.2,0-0.4-0.1-0.6-0.3
		c-0.2-0.2-0.3-0.4-0.3-0.6c0-0.1,0.1-0.3,0.2-0.6l9.7-25c0.1-0.3,0.3-0.6,0.6-0.9c0.3-0.3,0.7-0.4,1.2-0.4h2.4
		c0.5,0,0.9,0.1,1.2,0.4c0.3,0.3,0.5,0.6,0.6,0.9l9.7,25c0.1,0.2,0.2,0.4,0.2,0.6c0,0.2-0.1,0.4-0.3,0.6c-0.2,0.2-0.4,0.3-0.6,0.3
		h-1.5c-0.5,0-0.9-0.1-1.1-0.3c-0.2-0.2-0.4-0.4-0.4-0.7L35.9,93.4z M23.6,89.8h11l-5.5-14.1L23.6,89.8z"/>
	<path class="st2" d="M55.6,99.7c-0.3,0-0.5-0.1-0.8-0.3c-0.2-0.2-0.3-0.5-0.3-0.8V73c0-0.3,0.1-0.5,0.3-0.8
		c0.2-0.2,0.5-0.3,0.8-0.3h10.6c1.7,0,3.1,0.3,4.2,0.8c1.1,0.5,2,1.1,2.6,1.9c0.7,0.8,1.1,1.6,1.4,2.4c0.3,0.9,0.4,1.6,0.4,2.3
		c0,0.9-0.1,1.6-0.4,2.3c-0.3,0.7-0.6,1.2-0.9,1.7c-0.4,0.5-0.7,0.8-1.1,1.1c-0.4,0.3-0.6,0.5-0.8,0.6c1,0.7,1.9,1.6,2.6,2.7
		c0.8,1.1,1.1,2.4,1.1,3.9c0,1-0.2,2-0.6,2.9s-0.9,1.8-1.6,2.6c-0.7,0.8-1.6,1.4-2.7,1.8c-1.1,0.5-2.4,0.7-3.8,0.7H55.6z M58.3,75.5
		v8h7.5c1.8,0,3.1-0.3,4-1c0.9-0.7,1.3-1.7,1.3-3c0-1.3-0.4-2.3-1.3-3c-0.9-0.7-2.2-1-4-1H58.3z M58.3,87.1v9h8.1
		c0.9,0,1.6-0.1,2.3-0.4c0.7-0.2,1.2-0.6,1.7-1c0.5-0.4,0.8-0.9,1-1.4c0.2-0.5,0.3-1.1,0.3-1.7c0-0.6-0.1-1.1-0.3-1.7
		c-0.2-0.6-0.5-1-1-1.5c-0.4-0.4-1-0.8-1.7-1c-0.7-0.3-1.5-0.4-2.4-0.4H58.3z"/>
	<path class="st2" d="M93.3,82.5c-0.1,1.2-0.1,2.3-0.1,3.3c0,1,0,2.1,0.1,3.3c0.1,2.2,0.7,4,2,5.3c1.3,1.4,3.1,2,5.4,2
		c1.3,0,2.3-0.2,3.2-0.5c0.9-0.3,1.6-0.7,2.2-1.2c0.6-0.5,1-1.1,1.3-1.7s0.5-1.3,0.7-2c0.1-0.3,0.2-0.5,0.4-0.7
		c0.2-0.1,0.4-0.2,0.6-0.2h1.8c0.2,0,0.4,0.1,0.6,0.3c0.2,0.2,0.3,0.4,0.3,0.6c0,0.9-0.3,1.8-0.7,2.8c-0.4,1-1.1,2-2,2.9
		c-0.9,0.9-2,1.7-3.4,2.3c-1.4,0.6-3.1,0.9-5,0.9c-1.7,0-3.2-0.3-4.6-0.8c-1.3-0.5-2.5-1.3-3.5-2.2c-1-0.9-1.7-2.1-2.2-3.4
		c-0.5-1.3-0.8-2.7-0.9-4.3c-0.1-2.3-0.1-4.7,0-7c0.1-1.5,0.3-3,0.9-4.3c0.5-1.3,1.3-2.4,2.2-3.4c1-0.9,2.1-1.7,3.5-2.2
		c1.3-0.5,2.9-0.8,4.6-0.8c2,0,3.7,0.3,5,0.9c1.4,0.6,2.5,1.4,3.4,2.3c0.9,0.9,1.5,1.9,2,2.9c0.4,1,0.6,2,0.7,2.8
		c0,0.2-0.1,0.4-0.3,0.6s-0.4,0.3-0.6,0.3h-1.8c-0.2,0-0.4-0.1-0.6-0.2c-0.2-0.1-0.3-0.4-0.4-0.7c-0.2-0.7-0.4-1.3-0.7-2
		c-0.3-0.6-0.7-1.2-1.3-1.7c-0.6-0.5-1.3-0.9-2.2-1.2c-0.9-0.3-1.9-0.5-3.2-0.5c-2.3,0-4.1,0.7-5.4,2C94,78.5,93.3,80.3,93.3,82.5z"
		/>
</g>
</svg>
