<?xml version="1.0" encoding="utf-8"?>
<!-- Generator: Adobe Illustrator 23.0.6, SVG Export Plug-In . SVG Version: 6.00 Build 0)  -->
<svg version="1.1" id="Camada_1" xmlns="http://www.w3.org/2000/svg" xmlns:xlink="http://www.w3.org/1999/xlink" x="0px" y="0px"
	 viewBox="0 0 128 128" style="enable-background:new 0 0 128 128;" xml:space="preserve">
<style type="text/css">
	.st0{fill:none;stroke:#333333;stroke-width:3;stroke-linecap:round;stroke-linejoin:round;stroke-miterlimit:10;}
	.st1{fill:#003255;stroke:#003255;stroke-width:0.75;stroke-linecap:round;stroke-linejoin:round;stroke-miterlimit:10;}
	.st2{fill:#00A9E3;stroke:#00AAE7;stroke-width:3;stroke-linecap:round;stroke-linejoin:round;stroke-miterlimit:10;}
</style>
<polygon class="st0" points="49.7,-55.6 49.7,-24.4 78.3,-40.1 "/>
<rect x="8.4" y="-67.4" class="st0" width="111.1" height="54.9"/>
<g>
	<rect x="57.9" y="21.1" class="st1" width="61.1" height="4"/>
</g>
<g>
	<rect x="57.9" y="38.8" class="st1" width="61.7" height="4"/>
</g>
<g>
	<rect x="57.9" y="56.5" class="st1" width="61.7" height="4"/>
</g>
<g>
	<rect x="9.6" y="74.2" class="st1" width="109.9" height="4"/>
</g>
<path class="st2" d="M24,48.6h3.1v12.3h3.1V27h6.2v33.9h3.1V27h6.2v-3.1H24c-6.8,0-12.3,5.5-12.3,12.3S17.2,48.6,24,48.6z M24,27
	h3.1v18.5H24c-5.1,0-9.2-4.1-9.2-9.2S18.9,27,24,27z"/>
<g>
	<rect x="9.6" y="92" class="st1" width="110" height="4"/>
</g>
<g>
	<rect x="9.6" y="109.7" class="st1" width="63.5" height="4"/>
</g>
</svg>
