<?xml version="1.0" encoding="utf-8"?>
<!-- Generator: Adobe Illustrator 24.1.1, SVG Export Plug-In . SVG Version: 6.00 Build 0)  -->
<svg version="1.1" id="Camada_1" xmlns="http://www.w3.org/2000/svg" xmlns:xlink="http://www.w3.org/1999/xlink" x="0px" y="0px"
	 viewBox="0 0 128 128" style="enable-background:new 0 0 128 128;" xml:space="preserve">
<style type="text/css">
	.st0{fill:#16416E;}
	.st1{fill:#E9103B;}
	.st2{fill:none;stroke:#E9103B;stroke-width:4;stroke-linecap:round;stroke-linejoin:round;stroke-miterlimit:10;}
	.st3{fill:none;stroke:#16416E;stroke-width:4;stroke-linecap:round;stroke-linejoin:round;stroke-miterlimit:10;}
</style>
<g>
	<path class="st0" d="M26.9,38.9l-2.8,8.4h-3.5l9-26.6h4.2L43,47.3h-3.7l-2.8-8.4H26.9z M35.7,36.2l-2.6-7.6c-0.6-1.8-1-3.3-1.4-4.9
		h-0.1c-0.4,1.6-0.8,3.2-1.3,4.8l-2.6,7.7H35.7z"/>
</g>
<g>
	<path class="st0" d="M88.1,80.6c1.5-0.3,3.9-0.6,6.3-0.6c3.5,0,5.6,0.6,7.3,1.9c1.4,1.1,2.2,2.6,2.2,4.7c0,2.5-1.7,4.8-4.5,5.9v0.1
		c2.5,0.6,5.5,2.8,5.5,6.7c0,2.3-0.9,4-2.3,5.3c-1.8,1.7-4.9,2.5-9.2,2.5c-2.4,0-4.2-0.1-5.3-0.3C88.1,106.8,88.1,80.6,88.1,80.6z
		 M91.5,91.5h3.1c3.6,0,5.8-1.9,5.8-4.4c0-3.1-2.4-4.4-5.9-4.4c-1.6,0-2.5,0.1-3,0.2C91.5,82.9,91.5,91.5,91.5,91.5z M91.5,104.3
		c0.7,0.1,1.6,0.1,2.9,0.1c3.5,0,6.8-1.3,6.8-5.2c0-3.6-3.1-5.2-6.8-5.2h-2.8L91.5,104.3L91.5,104.3z"/>
</g>
<g>
	<path class="st1" d="M32.2,83.9L32.2,83.9l-4.5,2.4l-0.7-2.6l5.6-3h3v25.6h-3.4L32.2,83.9L32.2,83.9z"/>
</g>
<g>
	<path class="st1" d="M88.3,47v-2.1l2.8-2.6c6.6-6.2,9.5-9.5,9.5-13.4c0-2.6-1.3-5-5.1-5c-2.3,0-4.2,1.2-5.4,2.2l-1.1-2.5
		c1.8-1.5,4.3-2.6,7.3-2.6c5.5,0,7.8,3.8,7.8,7.5c0,4.7-3.5,8.5-8.8,13.8l-2,1.9v0.1h11.5v2.9L88.3,47L88.3,47z"/>
</g>
<rect x="10.8" y="75.1" class="st2" width="40.8" height="37"/>
<rect x="11.4" y="15.5" class="st3" width="40.8" height="37"/>
<rect x="76" y="15.5" class="st2" width="40.8" height="37"/>
<rect x="76" y="75.1" class="st3" width="40.8" height="37"/>
</svg>
